<svg width="664" height="1000" viewBox="0 0 664 1000" fill="none" xmlns="http://www.w3.org/2000/svg">
<path d="M348.736 79.1869C339.769 79.8986 328.524 81.1797 323.826 81.8914C319.129 82.7454 312.012 84.0265 307.884 84.5959C303.898 85.3076 298.489 86.5886 295.785 87.4427C293.223 88.2967 286.96 90.1472 281.835 91.713C250.663 101.25 212.088 122.317 184.331 145.091C164.688 161.176 141.486 185.516 131.522 200.32C128.818 204.306 124.832 209.857 122.555 212.704C120.277 215.551 117.431 220.106 116.292 222.81C115.011 225.515 111.879 231.635 109.317 236.333C91.809 268.36 79.9946 310.92 77.1478 352.341C75.4397 377.251 75.4397 381.521 77.1478 400.738C79.4252 427.498 84.9766 452.693 92.5207 471.909C94.2288 476.179 96.0792 481.303 96.791 483.296C100.207 493.972 117.288 524.718 128.676 540.945C146.326 565.855 175.079 596.743 190.737 607.561C218.493 626.777 240.983 639.588 259.061 646.278C278.704 653.68 315.855 663.359 317.563 661.651C318.133 661.081 319.698 652.541 320.979 642.719C322.26 632.898 323.826 620.799 324.538 615.674C329.235 580.516 329.235 580.089 324.823 580.089C321.406 580.089 294.504 571.264 282.547 566.139C253.082 553.755 223.048 529.557 201.128 500.235C159.706 445.006 148.319 385.649 165.684 314.621C168.958 301.098 170.809 295.547 172.232 294.693C173.086 294.123 173.656 292.7 173.656 291.134C173.656 287.433 185.47 265.513 195.149 251.278C218.92 216.262 265.893 181.673 306.034 169.432C312.724 167.439 320.125 165.161 322.545 164.45C330.659 161.745 350.729 159.752 368.664 159.895C385.887 159.895 416.206 163.169 421.046 165.731C422.327 166.3 426.597 167.724 430.44 168.578C446.952 172.563 476.417 186.086 487.519 194.769C488.373 195.338 493.071 198.897 498.195 202.74C535.204 230.497 565.807 276.758 577.052 322.023C582.177 342.662 583.885 370.703 581.465 393.905C580.184 406.147 579.33 405.15 592.141 407.001C594.845 407.428 602.532 408.709 609.222 409.99C635.697 414.83 653.775 417.819 657.618 417.819C661.604 417.819 661.604 417.676 662.885 406.716C664.735 388.496 664.023 340.527 661.461 325.296C654.629 284.302 640.537 248.432 617.335 213.131C578.049 153.347 526.236 113.349 461.898 93.4211C454.069 90.8589 445.529 88.2967 442.966 87.4427C434.426 84.7382 396.848 79.6139 377.916 78.6175C370.941 78.1905 357.704 78.4752 348.736 79.1869Z" fill="url(#paint0_linear)"/>
<path d="M347.314 340.954C346.46 342.662 345.037 348.925 344.325 354.903C343.613 360.881 342.617 368.426 342.19 371.557C340.34 385.791 337.066 413.121 336.781 416.395C336.639 419.669 337.635 420.096 351.158 423.654C366.388 427.64 395.995 439.596 398.7 442.87C399.554 444.009 401.12 444.863 401.974 444.863C405.105 444.863 428.022 462.371 439.694 473.759C472.433 505.785 492.788 541.94 503.321 586.493C507.164 602.72 507.164 650.974 503.321 667.628C494.354 707.199 481.543 734.671 459.907 761.289C434.712 792.177 393.433 820.218 356.851 831.179C333.365 838.296 322.405 839.862 297.495 839.719C274.578 839.719 267.176 838.865 241.981 833.314C184.048 820.503 131.666 777.374 103.198 718.871C92.3799 696.523 89.1061 686.275 83.8394 657.664C82.7007 651.686 82.416 626.634 83.1277 603.005C83.27 595.745 83.27 595.745 65.4773 593.041C59.6413 592.045 49.962 590.336 44.126 589.34C22.2053 585.07 5.26665 582.792 4.27026 583.931C2.27747 586.209 0 611.261 0 631.331C0 691.968 16.9387 744.493 53.2359 797.159C59.926 806.981 60.78 807.977 72.3097 821.357C90.2448 842.424 106.045 856.8 126.684 871.319C137.645 879.006 161.131 893.24 162.839 893.24C163.266 893.24 166.967 894.806 171.095 896.798C198.425 909.467 239.419 919.858 272.585 922.562C332.226 927.259 389.732 914.449 439.41 885.269C492.93 853.669 531.078 814.382 557.838 763.139C561.112 757.019 563.674 751.467 563.674 750.756C563.674 750.044 565.24 746.201 567.09 742.073C578.193 717.732 587.303 675.314 589.153 639.444C591.715 590.194 582.036 543.364 560.543 501.088C534.636 449.987 500.19 410.416 454.783 379.813C447.096 374.546 413.076 357.323 408.094 356.042C405.959 355.615 400.693 353.48 396.422 351.629C392.294 349.636 387.455 348.071 385.889 348.071C384.323 348.071 381.334 347.359 379.057 346.505C376.922 345.651 370.231 343.8 364.395 342.377C358.559 340.954 352.581 339.388 351.3 338.818C349.734 338.249 348.453 338.818 347.314 340.954Z" fill="url(#paint1_linear)"/>
<path d="M556.405 860.932C541.601 882.711 524.235 900.788 502.457 917.442C490.643 926.267 467.726 940.217 457.192 944.629C453.492 946.195 448.652 948.33 446.232 949.469C437.265 953.312 417.479 960.145 412.782 960.999C407.942 961.71 406.234 962.28 398.548 965.554L394.989 967.119H398.832C400.967 967.262 403.102 966.55 403.529 965.838C403.956 964.984 406.803 964.415 409.65 964.415C421.892 964.415 461.463 949.042 485.091 935.092C513.845 918.011 551.138 880.433 561.244 858.513C565.088 849.972 563.237 850.968 556.405 860.932Z" fill="url(#paint2_linear)"/>
<path d="M557.119 903.499C543.312 922.857 517.263 945.774 495.627 957.731C481.535 965.56 461.181 974.1 445.665 978.797C437.979 981.075 435.701 982.214 437.267 983.068C439.545 984.349 440.114 984.206 466.162 975.808C478.404 971.823 495.627 963.709 508.153 956.165C523.669 946.628 549.29 922.003 558.969 907.342C567.51 894.673 565.802 891.4 557.119 903.499Z" fill="url(#paint3_linear)"/>
<path d="M567.233 925.128C566.521 925.982 564.101 929.398 561.824 932.815C555.276 942.921 532.359 964.841 519.548 973.382C503.321 984.058 481.97 993.452 467.309 996.441C462.327 997.438 460.761 1000 465.174 1000C469.017 999.858 486.667 994.876 496.631 990.89C519.975 981.495 544.031 962.991 558.123 943.633C565.525 933.384 570.222 924.843 569.083 923.847C568.799 923.562 568.087 924.132 567.233 925.128Z" fill="url(#paint4_linear)"/>
<path d="M83.4776 150.347C95.2415 126.787 110.039 106.553 129.399 87.1413C139.929 76.8179 160.779 59.934 170.629 54.1548C174.088 52.109 178.599 49.3469 180.845 47.8954C189.22 42.8894 207.916 33.477 212.457 32.0035C217.158 30.6521 218.775 29.8598 225.956 25.5892L229.274 23.5624L225.465 24.0754C223.33 24.2194 221.309 25.2097 220.98 25.9721C220.671 26.8755 217.926 27.8198 215.105 28.1998C202.973 29.834 165.808 50.3517 144.253 67.3307C118.037 88.0971 86.0939 130.317 79.0043 153.391C76.3356 162.368 78.0365 161.134 83.4776 150.347Z" fill="url(#paint5_linear)"/>
<path d="M77.0878 108.267C88.1871 87.2384 110.943 61.0492 130.789 46.3113C143.71 36.6714 162.743 25.4901 177.492 18.7637C184.806 15.4805 186.911 14.0479 185.245 13.4105C182.817 12.4449 182.272 12.662 157.577 24.4623C145.978 30.0463 129.991 40.3864 118.585 49.5351C104.481 61.0579 82.3763 88.8829 74.7409 104.705C67.9679 118.4 70.0978 121.417 77.0878 108.267Z" fill="url(#paint6_linear)"/>
<path d="M64.179 88.1715C64.7703 87.2301 66.7125 83.5214 68.5135 79.8318C73.6535 68.9419 93.4392 44.1582 104.995 33.984C119.652 21.2377 139.558 9.07701 153.689 4.15743C158.493 2.5049 159.703 -0.24334 155.33 0.345709C151.54 0.999818 134.713 8.29338 125.37 13.5734C103.489 26.0001 82.1187 47.5502 70.7371 68.6166C64.7697 79.7615 61.2546 88.8527 62.5161 89.6881C62.8363 89.9322 63.4656 89.273 64.179 88.1715Z" fill="url(#paint7_linear)"/>
<defs>
<linearGradient id="paint0_linear" x1="369.895" y1="661.849" x2="369.895" y2="78.4169" gradientUnits="userSpaceOnUse">
<stop stop-color="#8F06B9"/>
<stop offset="1" stop-color="#B300EA"/>
</linearGradient>
<linearGradient id="paint1_linear" x1="294.778" y1="923.51" x2="294.778" y2="338.611" gradientUnits="userSpaceOnUse">
<stop stop-color="#8F06B9"/>
<stop offset="1" stop-color="#B300EA"/>
</linearGradient>
<linearGradient id="paint2_linear" x1="479.104" y1="967.138" x2="479.104" y2="852.724" gradientUnits="userSpaceOnUse">
<stop stop-color="#C300FF"/>
<stop offset="1" stop-color="#8E00BA"/>
</linearGradient>
<linearGradient id="paint3_linear" x1="500.686" y1="983.66" x2="500.686" y2="895.943" gradientUnits="userSpaceOnUse">
<stop stop-color="#C300FF"/>
<stop offset="1" stop-color="#8E00BA"/>
</linearGradient>
<linearGradient id="paint4_linear" x1="515.918" y1="1000" x2="515.918" y2="923.774" gradientUnits="userSpaceOnUse">
<stop stop-color="#C300FF"/>
<stop offset="1" stop-color="#8E00BA"/>
</linearGradient>
<linearGradient id="paint5_linear" x1="145.909" y1="34.7729" x2="161.183" y2="148.162" gradientUnits="userSpaceOnUse">
<stop stop-color="#C300FF"/>
<stop offset="1" stop-color="#8E00BA"/>
</linearGradient>
<linearGradient id="paint6_linear" x1="122.314" y1="21.2899" x2="134.024" y2="108.222" gradientUnits="userSpaceOnUse">
<stop stop-color="#C300FF"/>
<stop offset="1" stop-color="#8E00BA"/>
</linearGradient>
<linearGradient id="paint7_linear" x1="105.039" y1="7.11975" x2="115.215" y2="82.6636" gradientUnits="userSpaceOnUse">
<stop stop-color="#C300FF"/>
<stop offset="1" stop-color="#8E00BA"/>
</linearGradient>
</defs>
</svg>